<svg xmlns="http://www.w3.org/2000/svg" viewBox="0 0 800 1000">
  <!-- Definitions for animations -->
  <defs>
    <pattern id="heartPattern" x="0" y="0" width="40" height="40" patternUnits="userSpaceOnUse">
      <path d="M20 10 C22 8 25 8 27 10 C29 12 29 15 27 17 L20 24 L13 17 C11 15 11 12 13 10 C15 8 18 8 20 10Z" 
            fill="#ffccd5" opacity="0.3">
        <animate attributeName="opacity" 
                 values="0.3;0.6;0.3" 
                 dur="3s" 
                 repeatCount="indefinite"/>
      </path>
    </pattern>
    
    <!-- Floating heart animation -->
    <g id="floatingHeart">
      <path d="M20 10 C22 8 25 8 27 10 C29 12 29 15 27 17 L20 24 L13 17 C11 15 11 12 13 10 C15 8 18 8 20 10Z" 
            fill="#ff69b4" opacity="0.6"/>
    </g>
  </defs>
  
  <!-- Main background with animated gradient -->
  <rect width="100%" height="100%" fill="#ffe6ea">
    <animate attributeName="fill" 
             values="#ffe6ea;#ffd6e0;#ffe6ea" 
             dur="5s" 
             repeatCount="indefinite"/>
  </rect>
  <rect width="100%" height="100%" fill="url(#heartPattern)"/>
  
  <!-- Decorative border with pulse animation -->
  <rect x="20" y="20" width="760" height="960" rx="20" fill="none" 
        stroke="#e6a3b3" stroke-width="2" stroke-dasharray="5,5">
    <animate attributeName="stroke-width" 
             values="2;4;2" 
             dur="2s" 
             repeatCount="indefinite"/>
  </rect>
  
  <!-- Animated floating hearts -->
  <use href="#floatingHeart" x="50" y="100">
    <animateMotion path="M 0 0 Q 50 100 0 200" 
                   dur="7s" repeatCount="indefinite"/>
    <animate attributeName="opacity" 
             values="0.6;0.3;0.6" 
             dur="7s" repeatCount="indefinite"/>
  </use>
  
  <use href="#floatingHeart" x="700" y="150">
    <animateMotion path="M 0 0 Q -50 100 0 200" 
                   dur="8s" repeatCount="indefinite"/>
    <animate attributeName="opacity" 
             values="0.6;0.3;0.6" 
             dur="8s" repeatCount="indefinite"/>
  </use>
  
  <use href="#floatingHeart" x="200" y="800">
    <animateMotion path="M 0 0 Q 50 100 0 200" 
                   dur="6s" repeatCount="indefinite"/>
    <animate attributeName="opacity" 
             values="0.6;0.3;0.6" 
             dur="6s" repeatCount="indefinite"/>
  </use>
  
  <!-- Title with glowing animation -->
  <text x="400" y="100" text-anchor="middle" 
        font-family="Comic Sans MS, cursive" font-size="48" fill="#8b4513">
    Good Morning Partner
    <animate attributeName="fill"
             values="#8b4513;#a0522d;#8b4513"
             dur="3s"
             repeatCount="indefinite"/>
  </text>
  <line x1="250" y1="120" x2="550" y2="120" stroke="#8b4513" stroke-width="3">
    <animate attributeName="stroke-width"
             values="3;5;3"
             dur="2s"
             repeatCount="indefinite"/>
  </line>
  
  <!-- Main heart shape with beating animation -->
  <path d="M400 200 C500 150 600 250 400 500 C200 250 300 150 400 200" 
        fill="#ffc0cb" opacity="0.6">
    <animate attributeName="transform"
             attributeType="XML"
             type="scale"
             values="1;1.1;1"
             dur="2s"
             repeatCount="indefinite"
             additive="sum"/>
    <animate attributeName="opacity"
             values="0.6;0.8;0.6"
             dur="2s"
             repeatCount="indefinite"/>
  </path>
  
  <!-- Text content -->
  <text x="400" y="300" text-anchor="middle" 
        font-family="Arial, sans-serif" font-size="24" fill="#4b0082">
    <tspan x="400" dy="0">Our love is inseparable,</tspan>
    <tspan x="400" dy="40">bigger than anything.</tspan>
    <tspan x="400" dy="40">I love you deeper than every</tspan>
    <tspan x="400" dy="40">great poem written by poets.</tspan>
    <tspan x="400" dy="40">Sound of my heartbeat is the</tspan>
    <tspan x="400" dy="40">most beautiful music ever</tspan>
    <tspan x="400" dy="40">because it says your name 24/7.</tspan>
    <tspan x="400" dy="40">You are my ma ke hath ka paneer,</tspan>
    <tspan x="400" dy="40">my heart, my everything.</tspan>
    <tspan x="400" dy="40">I will love you from the depth</tspan>
    <tspan x="400" dy="40">of my soul till eternity.</tspan>
  </text>
  
  <!-- Decorative small hearts with pulse animation -->
  <g fill="#ff69b4" opacity="0.5">
    <path d="M100 400 C110 390 120 390 130 400 C140 410 140 420 130 430 L100 460 L70 430 C60 420 60 410 70 400 C80 390 90 390 100 400Z">
      <animate attributeName="transform"
               attributeType="XML"
               type="scale"
               values="1;1.2;1"
               dur="3s"
               repeatCount="indefinite"
               additive="sum"/>
    </path>
    <path d="M700 400 C710 390 720 390 730 400 C740 410 740 420 730 430 L700 460 L670 430 C660 420 660 410 670 400 C680 390 690 390 700 400Z">
      <animate attributeName="transform"
               attributeType="XML"
               type="scale"
               values="1;1.2;1"
               dur="2.5s"
               repeatCount="indefinite"
               additive="sum"/>
    </path>
    <path d="M400 800 C410 790 420 790 430 800 C440 810 440 820 430 830 L400 860 L370 830 C360 820 360 810 370 800 C380 790 390 790 400 800Z">
      <animate attributeName="transform"
               attributeType="XML"
               type="scale"
               values="1;1.2;1"
               dur="3.5s"
               repeatCount="indefinite"
               additive="sum"/>
    </path>
  </g>
</svg>
